<svg width="929" height="275" viewBox="0 0 929 275" fill="none" xmlns="http://www.w3.org/2000/svg">
<path d="M898.5 0H30C13.4315 0 0 13.4315 0 30V245C0 261.569 13.4315 275 30 275H255.444C265.475 275 274.842 269.987 280.406 261.641L335.594 178.859C341.158 170.513 350.525 165.5 360.556 165.5H576.095C585.484 165.5 594.332 169.896 600.003 177.378L664.997 263.122C670.668 270.604 679.516 275 688.905 275H898.5C915.069 275 928.5 261.569 928.5 245V30C928.5 13.4315 915.069 0 898.5 0Z" fill="url(#paint0_linear_13_8)" fill-opacity="0.1"/>
<defs>
<linearGradient id="paint0_linear_13_8" x1="0" y1="139" x2="928.5" y2="139" gradientUnits="userSpaceOnUse">
<stop stop-color="white"/>
<stop offset="1" stop-color="#999999"/>
</linearGradient>
</defs>
</svg>
