<svg xmlns="http://www.w3.org/2000/svg" xmlns:xlink="http://www.w3.org/1999/xlink" viewBox="0 0 512 512" width="512" height="512" style="width: 100%; height: 100%; transform: translate3d(0,0,0); content-visibility: visible;" preserveAspectRatio="xMidYMid meet"><defs><clipPath id="__lottie_element_2"><rect width="512" height="512" x="0" y="0"></rect></clipPath><linearGradient id="__lottie_element_7" spreadMethod="pad" gradientUnits="userSpaceOnUse" x1="-1.0399999618530273" y1="-176.5" x2="0.9599999785423279" y2="188.88900756835938"><stop offset="0%" stop-color="rgb(253,207,24)"></stop><stop offset="47%" stop-color="rgb(245,171,12)"></stop><stop offset="93%" stop-color="rgb(237,135,0)"></stop></linearGradient><radialGradient id="__lottie_element_8" spreadMethod="pad" gradientUnits="userSpaceOnUse" cx="-6.039999961853027" cy="-160.1230010986328" r="342.6724710471032" fx="-6.039999961853027" fy="-160.1230010986328"><stop offset="7%" stop-color="rgb(254,254,226)"></stop><stop offset="28%" stop-color="rgb(253,238,140)"></stop><stop offset="49%" stop-color="rgb(252,222,54)"></stop><stop offset="82%" stop-color="rgb(245,184,32)"></stop><stop offset="100%" stop-color="rgb(238,145,10)"></stop></radialGradient><radialGradient id="__lottie_element_14" spreadMethod="pad" gradientUnits="userSpaceOnUse" cx="-0.9229999780654907" cy="-0.6579999923706055" r="66.8699985742569" fx="-0.9229999780654907" fy="-0.6579999923706055"><stop offset="0%" stop-color="rgb(241,12,28)" stop-opacity="1"></stop><stop offset="59%" stop-color="rgb(224,29,33)" stop-opacity="0.5"></stop><stop offset="100%" stop-color="rgb(207,45,38)" stop-opacity="0"></stop></radialGradient><radialGradient id="__lottie_element_18" spreadMethod="pad" gradientUnits="userSpaceOnUse" cx="-0.6050000190734863" cy="-0.6579999923706055" r="66.86999940872192" fx="-0.6050000190734863" fy="-0.6579999923706055"><stop offset="0%" stop-color="rgb(241,12,28)" stop-opacity="1"></stop><stop offset="59%" stop-color="rgb(224,29,33)" stop-opacity="0.5"></stop><stop offset="100%" stop-color="rgb(207,45,38)" stop-opacity="0"></stop></radialGradient><linearGradient id="__lottie_element_25" spreadMethod="pad" gradientUnits="userSpaceOnUse" x1="-0.7089999914169312" y1="-18.124000549316406" x2="-0.7089999914169312" y2="15.98799991607666"><stop offset="0%" stop-color="rgb(170,102,192)"></stop><stop offset="50%" stop-color="rgb(121,70,160)"></stop><stop offset="100%" stop-color="rgb(72,37,128)"></stop></linearGradient><radialGradient id="__lottie_element_29" spreadMethod="pad" gradientUnits="userSpaceOnUse" cx="-0.7279999852180481" cy="-10.96500015258789" r="42.38700169324875" fx="-0.7279999852180481" fy="-10.96500015258789"><stop offset="0%" stop-color="rgb(253,137,140)"></stop><stop offset="33%" stop-color="rgb(251,87,94)"></stop><stop offset="55%" stop-color="rgb(250,38,48)"></stop><stop offset="77%" stop-color="rgb(210,23,24)"></stop><stop offset="100%" stop-color="rgb(171,8,0)"></stop></radialGradient><radialGradient id="__lottie_element_33" spreadMethod="pad" gradientUnits="userSpaceOnUse" cx="-0.7279999852180481" cy="-10.96500015258789" r="42.38700169324875" fx="-0.7279999852180481" fy="-10.96500015258789"><stop offset="0%" stop-color="rgb(253,137,140)"></stop><stop offset="33%" stop-color="rgb(251,87,94)"></stop><stop offset="55%" stop-color="rgb(250,38,48)"></stop><stop offset="77%" stop-color="rgb(210,23,24)"></stop><stop offset="100%" stop-color="rgb(171,8,0)"></stop></radialGradient><linearGradient id="__lottie_element_40" spreadMethod="pad" gradientUnits="userSpaceOnUse" x1="-0.7089999914169312" y1="-25.82200050354004" x2="-0.7089999914169312" y2="16.79599952697754"><stop offset="0%" stop-color="rgb(253,207,24)"></stop><stop offset="47%" stop-color="rgb(245,171,12)"></stop><stop offset="93%" stop-color="rgb(237,135,0)"></stop></linearGradient></defs><g clip-path="url(#__lottie_element_2)"><g style="display: block;" transform="matrix(0.9184560179710388,0,0,0.9184560179710388,15.165144920349121,9.47094440460205)" opacity="1"><g opacity="1" transform="matrix(1,0,0,1,0,0)"><path fill="rgb(253,194,42)" fill-opacity="1" d=" M270.04998779296875,80.71399688720703 C270.04998779296875,80.71399688720703 250.8000030517578,82.46399688720703 250.8000030517578,82.46399688720703 C250.8000030517578,82.46399688720703 250.8000030517578,136.71400451660156 250.8000030517578,136.71400451660156 C250.8000030517578,136.71400451660156 270.04998779296875,136.71400451660156 270.04998779296875,136.71400451660156 C270.04998779296875,136.71400451660156 270.04998779296875,80.71399688720703 270.04998779296875,80.71399688720703z"></path><path stroke-linecap="butt" stroke-linejoin="miter" fill-opacity="0" stroke-miterlimit="4" stroke="rgb(248,109,0)" stroke-opacity="1" stroke-width="8" d=" M270.04998779296875,80.71399688720703 C270.04998779296875,80.71399688720703 250.8000030517578,82.46399688720703 250.8000030517578,82.46399688720703 C250.8000030517578,82.46399688720703 250.8000030517578,136.71400451660156 250.8000030517578,136.71400451660156 C250.8000030517578,136.71400451660156 270.04998779296875,136.71400451660156 270.04998779296875,136.71400451660156 C270.04998779296875,136.71400451660156 270.04998779296875,80.71399688720703 270.04998779296875,80.71399688720703z"></path></g><g opacity="1" transform="matrix(1,0,0,1,260.9580078125,58.321998596191406)"><path fill="url(#__lottie_element_40)" fill-opacity="1" d=" M34.321998596191406,0 C34.321998596191406,18.12700080871582 18.954999923706055,32.821998596191406 0,32.821998596191406 C-18.954999923706055,32.821998596191406 -34.321998596191406,18.12700080871582 -34.321998596191406,0 C-34.321998596191406,-18.12700080871582 -18.954999923706055,-32.821998596191406 0,-32.821998596191406 C18.954999923706055,-32.821998596191406 34.321998596191406,-18.12700080871582 34.321998596191406,0z"></path></g><g opacity="1" transform="matrix(1,0,0,1,260.9580078125,58.321998596191406)"><path stroke-linecap="round" stroke-linejoin="round" fill-opacity="0" stroke="rgb(248,109,0)" stroke-opacity="1" stroke-width="8" d=" M34.321998596191406,0 C34.321998596191406,18.12700080871582 18.954999923706055,32.821998596191406 0,32.821998596191406 C-18.954999923706055,32.821998596191406 -34.321998596191406,18.12700080871582 -34.321998596191406,0 C-34.321998596191406,-18.12700080871582 -18.954999923706055,-32.821998596191406 0,-32.821998596191406 C18.954999923706055,-32.821998596191406 34.321998596191406,-18.12700080871582 34.321998596191406,0z"></path></g><g opacity="1" transform="matrix(1,0,0,1,260.9580078125,58.321998596191406)"><path stroke-linecap="round" stroke-linejoin="round" fill-opacity="0" stroke="rgb(255,255,255)" stroke-opacity="1" stroke-width="6" d=" M0.2529999911785126,-20.65999984741211 C9.229000091552734,-19.885000228881836 15.918000221252441,-16.010000228881836 18.729999542236328,-10.486000061035156"></path></g></g><g style="display: block;" transform="matrix(0.9800000190734863,0,0,0.9800000190734863,256,290.1100158691406)" opacity="1"><g opacity="1" transform="matrix(0.9700000286102295,0,0,0.9700000286102295,-1.2382900714874268,-4.540609836578369)"><g opacity="1" transform="matrix(1,0,0,1,1.656999945640564,-4.2870001792907715)"><path fill="url(#__lottie_element_7)" fill-opacity="1" d=" M194.9969940185547,0 C194.9969940185547,107.69400024414062 107.69300079345703,194.9969940185547 0,194.9969940185547 C-107.69400024414062,194.9969940185547 -194.9969940185547,107.69400024414062 -194.9969940185547,0 C-194.9969940185547,-107.69400024414062 -107.69400024414062,-194.9969940185547 0,-194.9969940185547 C107.69300079345703,-194.9969940185547 194.9969940185547,-107.69400024414062 194.9969940185547,0z"></path></g><g opacity="1" transform="matrix(1,0,0,1,1.715000033378601,-6.214000225067139)"><path fill="url(#__lottie_element_8)" fill-opacity="1" d=" M173.80799865722656,2.6630001068115234 C172.3040008544922,100.77200317382812 93.26899719238281,179.11199951171875 -2.7230000495910645,177.63999938964844 C-98.71399688720703,176.16799926757812 -175.31199645996094,95.44499969482422 -173.80799865722656,-2.6640000343322754 C-172.3040008544922,-100.77300262451172 -93.26899719238281,-179.11199951171875 2.7230000495910645,-177.64100646972656 C98.71399688720703,-176.16900634765625 175.31199645996094,-95.44499969482422 173.80799865722656,2.6630001068115234z"></path></g><g opacity="1" transform="matrix(1,0,0,1,1.656999945640564,-4.2870001792907715)"><path stroke-linecap="butt" stroke-linejoin="miter" fill-opacity="0" stroke-miterlimit="10" stroke="rgb(231,105,0)" stroke-opacity="1" stroke-width="8.259" d=" M194.9969940185547,0 C194.9969940185547,107.69400024414062 107.69300079345703,194.9969940185547 0,194.9969940185547 C-107.69400024414062,194.9969940185547 -194.9969940185547,107.69400024414062 -194.9969940185547,0 C-194.9969940185547,-107.69400024414062 -107.69400024414062,-194.9969940185547 0,-194.9969940185547 C107.69300079345703,-194.9969940185547 194.9969940185547,-107.69400024414062 194.9969940185547,0z"></path></g></g></g><g style="display: block;" transform="matrix(0.9800000190734863,0,0,0.9800000190734863,256,266.59002685546875)" opacity="1"><g opacity="1" transform="matrix(1,0,0,1,0,0)"><path fill="rgb(234,172,31)" fill-opacity="1" d=" M47.12099838256836,87.1259994506836 C35.189998626708984,99.30000305175781 -35.15800094604492,99.30000305175781 -47.0890007019043,87.1259994506836 C-57.92599868774414,76.06900024414062 -58.763999938964844,65.84100341796875 -55.242000579833984,64.55500030517578 C-50.819000244140625,62.939998626708984 -31.5049991607666,80.69000244140625 -0.006000000052154064,81.01200103759766 C31.493000030517578,80.69000244140625 50.80799865722656,62.939998626708984 55.23099899291992,64.55500030517578 C58.75299835205078,65.84100341796875 57.95800018310547,76.06900024414062 47.12099838256836,87.1259994506836z"></path></g><g opacity="1" transform="matrix(1,0,0,1,0,0)"><path fill="rgb(254,221,120)" fill-opacity="1" d=" M43.88199996948242,97.21199798583984 C31.951000213623047,109.38600158691406 15.491000175476074,119.0979995727539 -0.006000000052154064,119.0979995727539 C-15.527999877929688,119.0979995727539 -31.961999893188477,109.38600158691406 -43.893001556396484,97.21199798583984 C-54.72999954223633,86.15499877929688 -58.763999938964844,69.927001953125 -55.242000579833984,68.64099884033203 C-50.819000244140625,67.0260009765625 -31.5049991607666,90.7760009765625 -0.006000000052154064,91.0979995727539 C31.493000030517578,90.7760009765625 50.80799865722656,67.0260009765625 55.23099899291992,68.64099884033203 C58.75299835205078,69.927001953125 54.71900177001953,86.15499877929688 43.88199996948242,97.21199798583984z"></path></g><g opacity="1" transform="matrix(1,0,0,1,0,0)"><path fill="rgb(151,72,0)" fill-opacity="1" d=" M43.88199996948242,91.21199798583984 C31.951000213623047,103.38600158691406 15.491000175476074,113.0979995727539 -0.006000000052154064,113.0979995727539 C-15.527999877929688,113.0979995727539 -31.961999893188477,103.38600158691406 -43.893001556396484,91.21199798583984 C-54.72999954223633,80.15499877929688 -58.763999938964844,69.927001953125 -55.242000579833984,68.64099884033203 C-50.819000244140625,67.0260009765625 -31.5049991607666,85.7760009765625 -0.006000000052154064,86.0979995727539 C31.493000030517578,85.7760009765625 50.80799865722656,67.0260009765625 55.23099899291992,68.64099884033203 C58.75299835205078,69.927001953125 54.71900177001953,80.15499877929688 43.88199996948242,91.21199798583984z"></path></g><g opacity="1" transform="matrix(1,0,0,1,0,0)"><path fill="rgb(99,41,0)" fill-opacity="1" d=" M55.60300064086914,74.71900177001953 C51.178001403808594,73.10900115966797 31.4950008392334,91.78099822998047 -0.006000000052154064,92.10099792480469 C-31.506999969482422,91.78099822998047 -51.16699981689453,73.16400146484375 -55.59199905395508,74.77400207519531 C-55.71900177001953,74.81400299072266 -57.78900146484375,69.48799896240234 -55.24300003051758,68.64099884033203 C-50.775001525878906,67.15499877929688 -31.506999969482422,85.78099822998047 -0.006000000052154064,86.10099792480469 C31.4950008392334,85.78099822998047 50.82699966430664,66.97699737548828 55.231998443603516,68.64099884033203 C57.68000030517578,69.56600189208984 55.72999954223633,74.75900268554688 55.60300064086914,74.71900177001953z"></path></g></g><g style="display: block;" transform="matrix(0.9184560179710388,0,0,0.9184560179710388,29.865354537963867,27.599958419799805)" opacity="1"><g opacity="1" transform="matrix(1,0,0,1,452.5220031738281,273.4649963378906)"><path fill="url(#__lottie_element_33)" fill-opacity="1" d=" M5.065000057220459,58.558998107910156 C5.065000057220459,58.558998107910156 -5.065000057220459,58.558998107910156 -5.065000057220459,58.558998107910156 C-9.343999862670898,58.558998107910156 -12.812999725341797,55.09000015258789 -12.812999725341797,50.81100082397461 C-12.812999725341797,50.81100082397461 -12.812999725341797,-50.81100082397461 -12.812999725341797,-50.81100082397461 C-12.812999725341797,-55.09000015258789 -9.343999862670898,-58.558998107910156 -5.065000057220459,-58.558998107910156 C-5.065000057220459,-58.558998107910156 5.065000057220459,-58.558998107910156 5.065000057220459,-58.558998107910156 C9.343999862670898,-58.558998107910156 12.812999725341797,-55.09000015258789 12.812999725341797,-50.81100082397461 C12.812999725341797,-50.81100082397461 12.812999725341797,50.81100082397461 12.812999725341797,50.81100082397461 C12.812999725341797,55.09000015258789 9.343999862670898,58.558998107910156 5.065000057220459,58.558998107910156z"></path></g><g opacity="1" transform="matrix(1,0,0,1,452.5220031738281,273.4649963378906)"><path stroke-linecap="round" stroke-linejoin="round" fill-opacity="0" stroke="rgb(122,0,0)" stroke-opacity="1" stroke-width="8" d=" M5.065000057220459,58.558998107910156 C5.065000057220459,58.558998107910156 -5.065000057220459,58.558998107910156 -5.065000057220459,58.558998107910156 C-9.343999862670898,58.558998107910156 -12.812999725341797,55.09000015258789 -12.812999725341797,50.81100082397461 C-12.812999725341797,50.81100082397461 -12.812999725341797,-50.81100082397461 -12.812999725341797,-50.81100082397461 C-12.812999725341797,-55.09000015258789 -9.343999862670898,-58.558998107910156 -5.065000057220459,-58.558998107910156 C-5.065000057220459,-58.558998107910156 5.065000057220459,-58.558998107910156 5.065000057220459,-58.558998107910156 C9.343999862670898,-58.558998107910156 12.812999725341797,-55.09000015258789 12.812999725341797,-50.81100082397461 C12.812999725341797,-50.81100082397461 12.812999725341797,50.81100082397461 12.812999725341797,50.81100082397461 C12.812999725341797,55.09000015258789 9.343999862670898,58.558998107910156 5.065000057220459,58.558998107910156z"></path></g><g opacity="1" transform="matrix(1,0,0,1,0,0)"><g opacity="0.6" transform="matrix(0.7300000190734863,0,0,0.7300000190734863,452.5220031738281,296.3450012207031)"><path fill="rgb(122,0,0)" fill-opacity="1" d=" M-12.95199966430664,-41.15399932861328 C-12.95199966430664,-41.15399932861328 -12.779999732971191,36.49700164794922 -12.779999732971191,36.49700164794922 C-12.779999732971191,40.777000427246094 -9.3100004196167,44.23699951171875 -5.03000020980835,44.23699951171875 C-5.03000020980835,44.23699951171875 5.090000152587891,44.23699951171875 5.090000152587891,44.23699951171875 C9.369999885559082,44.23699951171875 12.84000015258789,40.777000427246094 12.84000015258789,36.49700164794922 C12.84000015258789,36.49700164794922 12.668000221252441,-36.183998107910156 12.668000221252441,-36.183998107910156 C12.668000221252441,-36.183998107910156 10.668000221252441,-38.34400177001953 10.668000221252441,-38.34400177001953 C10.668000221252441,-23.31399917602539 -10.95199966430664,-23.743999481201172 -10.95199966430664,-38.34400177001953 C-10.95199966430664,-39.763999938964844 -11.682000160217285,-40.66400146484375 -12.95199966430664,-41.15399932861328z"></path></g></g><g opacity="1" transform="matrix(1,0,0,1,634,238.5)"><path fill="rgb(210,77,83)" fill-opacity="1" d=" M-168.04299926757812,79.5 C-168.04299926757812,79.5 -194.79299926757812,79.5 -194.79299926757812,79.5 C-194.79299926757812,79.5 -191.625,94.25 -191.625,94.25 C-191.625,94.25 -169.375,92.375 -169.375,92.375 C-169.375,92.375 -168.04299926757812,79.5 -168.04299926757812,79.5z"></path></g><g opacity="0.5" transform="matrix(1,0,0,1,447.63800048828125,247.22000122070312)"><path stroke-linecap="round" stroke-linejoin="round" fill-opacity="0" stroke="rgb(255,255,255)" stroke-opacity="1" stroke-width="8" d=" M0,-8.79699993133545 C0,-8.79699993133545 0,8.79699993133545 0,8.79699993133545"></path></g><g opacity="1" transform="matrix(1,0,0,1,452.5220031738281,273.4649963378906)"><path stroke-linecap="round" stroke-linejoin="round" fill-opacity="0" stroke="rgb(81,1,19)" stroke-opacity="1" stroke-width="8" d=" M12.812999725341797,-4.085000038146973 C12.812999725341797,22.606000900268555 12.812999725341797,50.81100082397461 12.812999725341797,50.81100082397461 C12.812999725341797,55.09000015258789 9.343999862670898,58.558998107910156 5.065000057220459,58.558998107910156 C5.065000057220459,58.558998107910156 5.065000057220459,58.558998107910156 5.065000057220459,58.558998107910156 C5.065000057220459,58.558998107910156 -5.065000057220459,58.558998107910156 -5.065000057220459,58.558998107910156 C-9.343999862670898,58.558998107910156 -12.812999725341797,55.09000015258789 -12.812999725341797,50.81100082397461 C-12.812999725341797,50.81100082397461 -12.812999725341797,-40.96900177001953 -12.812999725341797,-50.08399963378906"></path></g><g opacity="0" transform="matrix(1,0,0,1,457.125,284.5)"><path fill="rgb(81,1,19)" fill-opacity="1" d=" M14.375,-25.5 C16.031999588012695,-25.5 17.375,-17.777000427246094 17.375,-8.25 C17.375,1.2769999504089355 16.031999588012695,9 14.375,9 C12.718000411987305,9 11.375,1.2769999504089355 11.375,-8.25 C11.375,-17.777000427246094 12.718000411987305,-25.5 14.375,-25.5z"></path><path stroke-linecap="round" stroke-linejoin="round" fill-opacity="0" stroke="rgb(122,0,0)" stroke-opacity="1" stroke-width="8" d=" M14.375,-25.5 C16.031999588012695,-25.5 17.375,-17.777000427246094 17.375,-8.25 C17.375,1.2769999504089355 16.031999588012695,9 14.375,9 C12.718000411987305,9 11.375,1.2769999504089355 11.375,-8.25 C11.375,-17.777000427246094 12.718000411987305,-25.5 14.375,-25.5z"></path></g></g><g style="display: block;" transform="matrix(-0.9184560179710388,0,0,0.9184560179710388,482.6952209472656,27.599958419799805)" opacity="1"><g opacity="1" transform="matrix(1,0,0,1,452.5220031738281,273.4649963378906)"><path fill="url(#__lottie_element_29)" fill-opacity="1" d=" M5.065000057220459,58.558998107910156 C5.065000057220459,58.558998107910156 -5.065000057220459,58.558998107910156 -5.065000057220459,58.558998107910156 C-9.343999862670898,58.558998107910156 -12.812999725341797,55.09000015258789 -12.812999725341797,50.81100082397461 C-12.812999725341797,50.81100082397461 -12.812999725341797,-50.81100082397461 -12.812999725341797,-50.81100082397461 C-12.812999725341797,-55.09000015258789 -9.343999862670898,-58.558998107910156 -5.065000057220459,-58.558998107910156 C-5.065000057220459,-58.558998107910156 5.065000057220459,-58.558998107910156 5.065000057220459,-58.558998107910156 C9.343999862670898,-58.558998107910156 12.812999725341797,-55.09000015258789 12.812999725341797,-50.81100082397461 C12.812999725341797,-50.81100082397461 12.812999725341797,50.81100082397461 12.812999725341797,50.81100082397461 C12.812999725341797,55.09000015258789 9.343999862670898,58.558998107910156 5.065000057220459,58.558998107910156z"></path></g><g opacity="1" transform="matrix(1,0,0,1,452.5220031738281,273.4649963378906)"><path stroke-linecap="round" stroke-linejoin="round" fill-opacity="0" stroke="rgb(122,0,0)" stroke-opacity="1" stroke-width="8" d=" M5.065000057220459,58.558998107910156 C5.065000057220459,58.558998107910156 -5.065000057220459,58.558998107910156 -5.065000057220459,58.558998107910156 C-9.343999862670898,58.558998107910156 -12.812999725341797,55.09000015258789 -12.812999725341797,50.81100082397461 C-12.812999725341797,50.81100082397461 -12.812999725341797,-50.81100082397461 -12.812999725341797,-50.81100082397461 C-12.812999725341797,-55.09000015258789 -9.343999862670898,-58.558998107910156 -5.065000057220459,-58.558998107910156 C-5.065000057220459,-58.558998107910156 5.065000057220459,-58.558998107910156 5.065000057220459,-58.558998107910156 C9.343999862670898,-58.558998107910156 12.812999725341797,-55.09000015258789 12.812999725341797,-50.81100082397461 C12.812999725341797,-50.81100082397461 12.812999725341797,50.81100082397461 12.812999725341797,50.81100082397461 C12.812999725341797,55.09000015258789 9.343999862670898,58.558998107910156 5.065000057220459,58.558998107910156z"></path></g><g opacity="1" transform="matrix(1,0,0,1,0,0)"><g opacity="0.6" transform="matrix(0.7300000190734863,0,0,0.7300000190734863,452.5220031738281,296.3450012207031)"><path fill="rgb(122,0,0)" fill-opacity="1" d=" M-12.95199966430664,-41.15399932861328 C-12.95199966430664,-41.15399932861328 -12.779999732971191,36.49700164794922 -12.779999732971191,36.49700164794922 C-12.779999732971191,40.777000427246094 -9.3100004196167,44.23699951171875 -5.03000020980835,44.23699951171875 C-5.03000020980835,44.23699951171875 5.090000152587891,44.23699951171875 5.090000152587891,44.23699951171875 C9.369999885559082,44.23699951171875 12.84000015258789,40.777000427246094 12.84000015258789,36.49700164794922 C12.84000015258789,36.49700164794922 12.668000221252441,-36.183998107910156 12.668000221252441,-36.183998107910156 C12.668000221252441,-36.183998107910156 10.668000221252441,-38.34400177001953 10.668000221252441,-38.34400177001953 C10.668000221252441,-23.31399917602539 -10.95199966430664,-23.743999481201172 -10.95199966430664,-38.34400177001953 C-10.95199966430664,-39.763999938964844 -11.682000160217285,-40.66400146484375 -12.95199966430664,-41.15399932861328z"></path></g></g><g opacity="1" transform="matrix(1,0,0,1,634,238.5)"><path fill="rgb(210,77,83)" fill-opacity="1" d=" M-168.04299926757812,79.5 C-168.04299926757812,79.5 -176.0540008544922,79.5 -176.0540008544922,79.5 C-176.0540008544922,79.5 -194.79299926757812,79.5 -194.79299926757812,79.5 C-194.79299926757812,79.5 -191.625,94.25 -191.625,94.25 C-191.625,94.25 -169.375,92.375 -169.375,92.375 C-169.375,92.375 -168.04299926757812,79.5 -168.04299926757812,79.5z"></path></g><g opacity="0.5" transform="matrix(1,0,0,1,447.63800048828125,247.22000122070312)"><path stroke-linecap="round" stroke-linejoin="round" fill-opacity="0" stroke="rgb(255,255,255)" stroke-opacity="1" stroke-width="8" d=" M0,-8.79699993133545 C0,-8.79699993133545 0,8.79699993133545 0,8.79699993133545"></path></g><g opacity="1" transform="matrix(1,0,0,1,452.5220031738281,273.4649963378906)"><path stroke-linecap="round" stroke-linejoin="round" fill-opacity="0" stroke="rgb(81,1,19)" stroke-opacity="1" stroke-width="8" d=" M12.812999725341797,-4.085000038146973 C12.812999725341797,22.606000900268555 12.812999725341797,50.81100082397461 12.812999725341797,50.81100082397461 C12.812999725341797,55.09000015258789 9.343999862670898,58.558998107910156 5.065000057220459,58.558998107910156 C5.065000057220459,58.558998107910156 5.065000057220459,58.558998107910156 5.065000057220459,58.558998107910156 C5.065000057220459,58.558998107910156 -5.065000057220459,58.558998107910156 -5.065000057220459,58.558998107910156 C-9.343999862670898,58.558998107910156 -12.812999725341797,55.09000015258789 -12.812999725341797,50.81100082397461 C-12.812999725341797,50.81100082397461 -12.812999725341797,-40.96900177001953 -12.812999725341797,-50.08399963378906"></path></g><g opacity="0" transform="matrix(1,0,0,1,457.125,284.5)"><path fill="rgb(81,1,19)" fill-opacity="1" d=" M14.375,-21.25 C17.527000427246094,-21.25 20.082000732421875,-13.527000427246094 20.082000732421875,-4 C20.082000732421875,5.5269999504089355 17.527000427246094,13.25 14.375,13.25 C11.222999572753906,13.25 8.668000221252441,5.5269999504089355 8.668000221252441,-4 C8.668000221252441,-13.527000427246094 11.222999572753906,-21.25 14.375,-21.25z"></path><path stroke-linecap="round" stroke-linejoin="round" fill-opacity="0" stroke="rgb(122,0,0)" stroke-opacity="1" stroke-width="8" d=" M14.375,-21.25 C17.527000427246094,-21.25 20.082000732421875,-13.527000427246094 20.082000732421875,-4 C20.082000732421875,5.5269999504089355 17.527000427246094,13.25 14.375,13.25 C11.222999572753906,13.25 8.668000221252441,5.5269999504089355 8.668000221252441,-4 C8.668000221252441,-13.527000427246094 11.222999572753906,-21.25 14.375,-21.25z"></path></g></g><g style="display: block;" transform="matrix(0.9184560179710388,0,0,0.9184560179710388,15.165144920349121,9.470017433166504)" opacity="1"><g opacity="1" transform="matrix(1,0,0,1,260.9580078125,103.625)"><path fill="url(#__lottie_element_25)" fill-opacity="1" d=" M28.9060001373291,-20.367000579833984 C28.9060001373291,-20.367000579833984 17.55299949645996,-16.31599998474121 0,-16.31599998474121 C-17.55299949645996,-16.31599998474121 -28.9060001373291,-20.367000579833984 -28.9060001373291,-20.367000579833984 C-28.9060001373291,-20.367000579833984 -53.62300109863281,-3.9820001125335693 -53.62300109863281,-3.9820001125335693 C-53.62300109863281,-3.9820001125335693 -54.58599853515625,-3.3429999351501465 -54.58599853515625,-3.3429999351501465 C-54.58599853515625,-3.3429999351501465 -35.47200012207031,20.367000579833984 0,20.367000579833984 C35.47200012207031,20.367000579833984 54.58599853515625,-3.3429999351501465 54.58599853515625,-3.3429999351501465 C54.58599853515625,-3.3429999351501465 52.64799880981445,-4.627999782562256 52.64799880981445,-4.627999782562256 C52.64799880981445,-4.627999782562256 28.9060001373291,-20.367000579833984 28.9060001373291,-20.367000579833984z"></path></g><g opacity="0.15" transform="matrix(0.5799999833106995,0,0,0.5799999833106995,260.9580078125,96.2249984741211)"><path fill="rgb(255,255,255)" fill-opacity="1" d=" M28.9060001373291,-20.367000579833984 C28.9060001373291,-20.367000579833984 17.55299949645996,-16.31599998474121 0,-16.31599998474121 C-17.55299949645996,-16.31599998474121 -28.9060001373291,-20.367000579833984 -28.9060001373291,-20.367000579833984 C-28.9060001373291,-20.367000579833984 -60.0890007019043,-11.093999862670898 -60.0890007019043,-11.093999862670898 C-60.0890007019043,-11.093999862670898 -54.58599853515625,-3.3429999351501465 -54.58599853515625,-3.3429999351501465 C-54.58599853515625,-3.3429999351501465 -35.47200012207031,20.367000579833984 0,20.367000579833984 C35.47200012207031,20.367000579833984 54.58599853515625,-3.3429999351501465 54.58599853515625,-3.3429999351501465 C54.58599853515625,-3.3429999351501465 61.915000915527344,-11.093000411987305 61.915000915527344,-11.093000411987305 C61.915000915527344,-11.093000411987305 28.9060001373291,-20.367000579833984 28.9060001373291,-20.367000579833984z"></path></g><g opacity="1" transform="matrix(1,0,0,1,260.9580078125,103.625)"><path stroke-linecap="round" stroke-linejoin="round" fill-opacity="0" stroke="rgb(78,29,105)" stroke-opacity="1" stroke-width="8" d=" M28.9060001373291,-20.367000579833984 C28.9060001373291,-20.367000579833984 17.55299949645996,-16.31599998474121 0,-16.31599998474121 C-17.55299949645996,-16.31599998474121 -28.9060001373291,-20.367000579833984 -28.9060001373291,-20.367000579833984 C-28.9060001373291,-20.367000579833984 -53.62300109863281,-3.9820001125335693 -53.62300109863281,-3.9820001125335693 C-53.62300109863281,-3.9820001125335693 -54.58599853515625,-3.3429999351501465 -54.58599853515625,-3.3429999351501465 C-54.58599853515625,-3.3429999351501465 -35.47200012207031,20.367000579833984 0,20.367000579833984 C35.47200012207031,20.367000579833984 54.58599853515625,-3.3429999351501465 54.58599853515625,-3.3429999351501465 C54.58599853515625,-3.3429999351501465 52.64799880981445,-4.627999782562256 52.64799880981445,-4.627999782562256 C52.64799880981445,-4.627999782562256 28.9060001373291,-20.367000579833984 28.9060001373291,-20.367000579833984z"></path></g><g opacity="1" transform="matrix(1,0,0,1,260.9580078125,103.625)"><path stroke-linecap="round" stroke-linejoin="round" fill-opacity="0" stroke="rgb(47,27,57)" stroke-opacity="1" stroke-width="8" d=" M-54.58599853515625,-3.3429999351501465 C-54.58599853515625,-3.3429999351501465 -35.47200012207031,20.367000579833984 0,20.367000579833984 C35.47200012207031,20.367000579833984 54.58599853515625,-3.3429999351501465 54.58599853515625,-3.3429999351501465 C54.58599853515625,-3.3429999351501465 54.51599884033203,-3.390000104904175 54.402000427246094,-3.4649999141693115"></path></g></g><g style="display: block;" transform="matrix(0.9184560179710388,0,0,0.9184560179710388,15.165489196777344,27.109928131103516)" opacity="1"><g opacity="1" transform="matrix(1,0,0,1,0,0)"><g opacity="1" transform="matrix(1.0700000524520874,0,0,1.0700000524520874,350.07000732421875,243.3000030517578)"><path fill="rgb(234,172,31)" fill-opacity="1" d=" M50.57600021362305,0 C50.57600021362305,27.93199920654297 27.93199920654297,50.57600021362305 0,50.57600021362305 C-27.93199920654297,50.57600021362305 -50.57600021362305,27.93199920654297 -50.57600021362305,0 C-50.57600021362305,-27.93199920654297 -27.93199920654297,-50.57600021362305 0,-50.57600021362305 C27.93199920654297,-50.57600021362305 50.57600021362305,-27.93199920654297 50.57600021362305,0z"></path></g></g><g opacity="1" transform="matrix(1,0,0,1,-176,0)"><g opacity="1" transform="matrix(1.0700000524520874,0,0,1.0700000524520874,350.07000732421875,243.31500244140625)"><path fill="rgb(234,172,31)" fill-opacity="1" d=" M50.57600021362305,0 C50.57600021362305,27.93199920654297 27.93199920654297,50.57600021362305 0,50.57600021362305 C-27.93199920654297,50.57600021362305 -50.57600021362305,27.93199920654297 -50.57600021362305,0 C-50.57600021362305,-27.93199920654297 -27.93199920654297,-50.57600021362305 0,-50.57600021362305 C27.93199920654297,-50.57600021362305 50.57600021362305,-27.93199920654297 50.57600021362305,0z"></path></g></g></g><g style="display: block;" transform="matrix(0.9728299975395203,0,0,0.9728299975395203,383.3039855957031,290.0610046386719)" opacity="0.5"><g opacity="1" transform="matrix(1,0,0,1,0,0)"><path fill="url(#__lottie_element_18)" fill-opacity="1" d=" M66.87000274658203,0 C66.87000274658203,36.930999755859375 36.930999755859375,66.87000274658203 0,66.87000274658203 C-36.930999755859375,66.87000274658203 -66.87000274658203,36.930999755859375 -66.87000274658203,0 C-66.87000274658203,-36.930999755859375 -36.930999755859375,-66.87000274658203 0,-66.87000274658203 C36.930999755859375,-66.87000274658203 66.87000274658203,-36.930999755859375 66.87000274658203,0z"></path></g></g><g style="display: block;" transform="matrix(0.9728299975395203,0,0,0.9728299975395203,129.7050018310547,290.0610046386719)" opacity="0.5"><g opacity="1" transform="matrix(1,0,0,1,0,0)"><path fill="url(#__lottie_element_14)" fill-opacity="1" d=" M66.87000274658203,0 C66.87000274658203,36.930999755859375 36.930999755859375,66.87000274658203 0,66.87000274658203 C-36.930999755859375,66.87000274658203 -66.87000274658203,36.930999755859375 -66.87000274658203,0 C-66.87000274658203,-36.930999755859375 -36.930999755859375,-66.87000274658203 0,-66.87000274658203 C36.930999755859375,-66.87000274658203 66.87000274658203,-36.930999755859375 66.87000274658203,0z"></path></g></g><g style="display: block;" transform="matrix(0.9184560179710388,0,0,0.9184560179710388,15.165489196777344,27.109928131103516)" opacity="1"><g opacity="1" transform="matrix(1,0,0,1,0,0)"><g opacity="1" transform="matrix(1,0,0,1,350.07000732421875,235.4149932861328)"><path stroke-linecap="round" stroke-linejoin="round" fill-opacity="0" stroke="rgb(1,69,104)" stroke-opacity="1" stroke-width="8" d=" M50.57600021362305,0 C50.57600021362305,27.93199920654297 27.93199920654297,50.57600021362305 0,50.57600021362305 C-27.93199920654297,50.57600021362305 -50.57600021362305,27.93199920654297 -50.57600021362305,0 C-50.57600021362305,-27.93199920654297 -27.93199920654297,-50.57600021362305 0,-50.57600021362305 C27.93199920654297,-50.57600021362305 50.57600021362305,-27.93199920654297 50.57600021362305,0z"></path><path fill="rgb(1,69,104)" fill-opacity="1" d=" M50.57600021362305,0 C50.57600021362305,27.93199920654297 27.93199920654297,50.57600021362305 0,50.57600021362305 C-27.93199920654297,50.57600021362305 -50.57600021362305,27.93199920654297 -50.57600021362305,0 C-50.57600021362305,-27.93199920654297 -27.93199920654297,-50.57600021362305 0,-50.57600021362305 C27.93199920654297,-50.57600021362305 50.57600021362305,-27.93199920654297 50.57600021362305,0z"></path></g><g opacity="1" transform="matrix(1,0,0,1,350.07000732421875,235.4149932861328)"><path fill="rgb(1,125,159)" fill-opacity="1" d=" M50.57600021362305,0 C50.57600021362305,27.93199920654297 27.93199920654297,50.57600021362305 0,50.57600021362305 C-27.93199920654297,50.57600021362305 -50.57600021362305,27.93199920654297 -50.57600021362305,0 C-50.57600021362305,-27.93199920654297 -27.93199920654297,-50.57600021362305 0,-50.57600021362305 C27.93199920654297,-50.57600021362305 50.57600021362305,-27.93199920654297 50.57600021362305,0z"></path></g><g opacity="1" transform="matrix(1,0,0,1,350.07000732421875,235.4149932861328)"><path fill="rgb(0,231,255)" fill-opacity="1" d=" M-50.57600021362305,0 C-50.57600021362305,0 -50.57600021362305,0 -50.57600021362305,0 C-50.57600021362305,-27.93199920654297 -27.93199920654297,-50.57600021362305 0,-50.57600021362305 C27.93199920654297,-50.57600021362305 50.57600021362305,-27.93199920654297 50.57600021362305,0"></path></g><g opacity="1" transform="matrix(1,0,0,1,350.07000732421875,235.4149932861328)"><path stroke-linecap="round" stroke-linejoin="round" fill-opacity="0" stroke="rgb(1,69,104)" stroke-opacity="1" stroke-width="8" d=" M50.57600021362305,0 C50.57600021362305,27.93199920654297 27.93199920654297,50.57600021362305 0,50.57600021362305 C-27.93199920654297,50.57600021362305 -50.57600021362305,27.93199920654297 -50.57600021362305,0 C-50.57600021362305,-27.93199920654297 -27.93199920654297,-50.57600021362305 0,-50.57600021362305 C27.93199920654297,-50.57600021362305 50.57600021362305,-27.93199920654297 50.57600021362305,0z"></path></g><g opacity="1" transform="matrix(1,0,0,1,350.07000732421875,235.4149932861328)"><path stroke-linecap="round" stroke-linejoin="round" fill-opacity="0" stroke="rgb(0,90,125)" stroke-opacity="1" stroke-width="8" d=" M-50.57600021362305,0 C-50.57600021362305,0 -50.57600021362305,0 -50.57600021362305,0 C-50.57600021362305,-27.93199920654297 -27.93199920654297,-50.57600021362305 0,-50.57600021362305 C27.93199920654297,-50.57600021362305 50.57600021362305,-27.93199920654297 50.57600021362305,0"></path></g><g opacity="1" transform="matrix(0.7850000262260437,0,0,0.7850000262260437,350.07000732421875,235.4149932861328)"><path stroke-linecap="round" stroke-linejoin="round" fill-opacity="0" stroke="rgb(115,255,248)" stroke-opacity="1" stroke-width="9" d=" M-29.985000610351562,-40.731998443603516 C-21.594999313354492,-46.91899871826172 -11.225000381469727,-50.57600021362305 0,-50.57600021362305 C11.567000389099121,-50.57600021362305 22.226999282836914,-46.69300079345703 30.746999740600586,-40.159000396728516"></path></g><g opacity="1" transform="matrix(1,0,0,1,0,0)"><g opacity="1" transform="matrix(1,0,0,1,350.07000732421875,235.4149932861328)"><path fill="rgb(250,255,255)" fill-opacity="1" d=" M31.12700080871582,0 C31.12700080871582,17.19099998474121 17.19099998474121,31.12700080871582 0,31.12700080871582 C-17.19099998474121,31.12700080871582 -31.12700080871582,17.19099998474121 -31.12700080871582,0 C-31.12700080871582,-17.19099998474121 -17.19099998474121,-31.12700080871582 0,-31.12700080871582 C17.19099998474121,-31.12700080871582 31.12700080871582,-17.19099998474121 31.12700080871582,0z"></path></g><g opacity="1" transform="matrix(1,0,0,1,350.07000732421875,235.4149932861328)"><path fill="rgb(225,223,232)" fill-opacity="1" d=" M31.12700080871582,0 C31.12700080871582,17.19099998474121 17.19099998474121,31.12700080871582 0,31.12700080871582 C-17.19099998474121,31.12700080871582 -31.12700080871582,17.19099998474121 -31.12700080871582,0 C-31.12700080871582,0 -31.12700080871582,0 -31.12700080871582,0"></path></g><g opacity="1" transform="matrix(1,0,0,1,350.07000732421875,235.4149932861328)"><path stroke-linecap="round" stroke-linejoin="round" fill-opacity="0" stroke="rgb(0,69,104)" stroke-opacity="1" stroke-width="8" d=" M31.12700080871582,0 C31.12700080871582,17.19099998474121 17.19099998474121,31.12700080871582 0,31.12700080871582 C-17.19099998474121,31.12700080871582 -31.12700080871582,17.19099998474121 -31.12700080871582,0 C-31.12700080871582,-17.19099998474121 -17.19099998474121,-31.12700080871582 0,-31.12700080871582 C17.19099998474121,-31.12700080871582 31.12700080871582,-17.19099998474121 31.12700080871582,0z"></path></g><g opacity="1" transform="matrix(1,0,0,1,350.07000732421875,235.4149932861328)"><path stroke-linecap="round" stroke-linejoin="round" fill-opacity="0" stroke="rgb(0,89,124)" stroke-opacity="1" stroke-width="8" d=" M-31.12700080871582,0 C-31.12700080871582,0 -31.12700080871582,0 -31.12700080871582,0 C-31.12700080871582,-17.19099998474121 -17.19099998474121,-31.12700080871582 0,-31.12700080871582 C17.19099998474121,-31.12700080871582 31.12700080871582,-17.19099998474121 31.12700080871582,0"></path></g></g></g><g opacity="1" transform="matrix(1,0,0,1,-176,0)"><g opacity="1" transform="matrix(1,0,0,1,350.07000732421875,235.4149932861328)"><path stroke-linecap="round" stroke-linejoin="round" fill-opacity="0" stroke="rgb(1,69,104)" stroke-opacity="1" stroke-width="8" d=" M50.57600021362305,0 C50.57600021362305,27.93199920654297 27.93199920654297,50.57600021362305 0,50.57600021362305 C-27.93199920654297,50.57600021362305 -50.57600021362305,27.93199920654297 -50.57600021362305,0 C-50.57600021362305,-27.93199920654297 -27.93199920654297,-50.57600021362305 0,-50.57600021362305 C27.93199920654297,-50.57600021362305 50.57600021362305,-27.93199920654297 50.57600021362305,0z"></path><path fill="rgb(1,69,104)" fill-opacity="1" d=" M50.57600021362305,0 C50.57600021362305,27.93199920654297 27.93199920654297,50.57600021362305 0,50.57600021362305 C-27.93199920654297,50.57600021362305 -50.57600021362305,27.93199920654297 -50.57600021362305,0 C-50.57600021362305,-27.93199920654297 -27.93199920654297,-50.57600021362305 0,-50.57600021362305 C27.93199920654297,-50.57600021362305 50.57600021362305,-27.93199920654297 50.57600021362305,0z"></path></g><g opacity="1" transform="matrix(1,0,0,1,350.07000732421875,235.4149932861328)"><path fill="rgb(1,125,159)" fill-opacity="1" d=" M50.57600021362305,0 C50.57600021362305,27.93199920654297 27.93199920654297,50.57600021362305 0,50.57600021362305 C-27.93199920654297,50.57600021362305 -50.57600021362305,27.93199920654297 -50.57600021362305,0 C-50.57600021362305,-27.93199920654297 -27.93199920654297,-50.57600021362305 0,-50.57600021362305 C27.93199920654297,-50.57600021362305 50.57600021362305,-27.93199920654297 50.57600021362305,0z"></path></g><g opacity="1" transform="matrix(1,0,0,1,350.07000732421875,235.4149932861328)"><path fill="rgb(0,231,255)" fill-opacity="1" d=" M-50.57600021362305,0 C-50.57600021362305,0 -50.57600021362305,0 -50.57600021362305,0 C-50.57600021362305,-27.93199920654297 -27.93199920654297,-50.57600021362305 0,-50.57600021362305 C27.93199920654297,-50.57600021362305 50.57600021362305,-27.93199920654297 50.57600021362305,0"></path></g><g opacity="1" transform="matrix(1,0,0,1,350.07000732421875,235.4149932861328)"><path stroke-linecap="round" stroke-linejoin="round" fill-opacity="0" stroke="rgb(1,69,104)" stroke-opacity="1" stroke-width="8" d=" M50.57600021362305,0 C50.57600021362305,27.93199920654297 27.93199920654297,50.57600021362305 0,50.57600021362305 C-27.93199920654297,50.57600021362305 -50.57600021362305,27.93199920654297 -50.57600021362305,0 C-50.57600021362305,-27.93199920654297 -27.93199920654297,-50.57600021362305 0,-50.57600021362305 C27.93199920654297,-50.57600021362305 50.57600021362305,-27.93199920654297 50.57600021362305,0z"></path></g><g opacity="1" transform="matrix(1,0,0,1,350.07000732421875,235.4149932861328)"><path stroke-linecap="round" stroke-linejoin="round" fill-opacity="0" stroke="rgb(0,90,125)" stroke-opacity="1" stroke-width="8" d=" M-50.57600021362305,0 C-50.57600021362305,0 -50.57600021362305,0 -50.57600021362305,0 C-50.57600021362305,-27.93199920654297 -27.93199920654297,-50.57600021362305 0,-50.57600021362305 C27.93199920654297,-50.57600021362305 50.57600021362305,-27.93199920654297 50.57600021362305,0"></path></g><g opacity="1" transform="matrix(0.7889999747276306,0,0,0.7889999747276306,350.07000732421875,235.4149932861328)"><path stroke-linecap="round" stroke-linejoin="round" fill-opacity="0" stroke="rgb(115,255,248)" stroke-opacity="1" stroke-width="9" d=" M-30.4950008392334,-40.35200119018555 C-22.016000747680664,-46.76900100708008 -11.45300006866455,-50.57600021362305 0,-50.57600021362305 C12.137999534606934,-50.57600021362305 23.277000427246094,-46.29999923706055 31.993000030517578,-39.17300033569336"></path></g><g opacity="1" transform="matrix(1,0,0,1,0,0)"><g opacity="1" transform="matrix(1,0,0,1,350.07000732421875,235.4149932861328)"><path fill="rgb(250,255,255)" fill-opacity="1" d=" M31.12700080871582,0 C31.12700080871582,17.19099998474121 17.19099998474121,31.12700080871582 0,31.12700080871582 C-17.19099998474121,31.12700080871582 -31.12700080871582,17.19099998474121 -31.12700080871582,0 C-31.12700080871582,-17.19099998474121 -17.19099998474121,-31.12700080871582 0,-31.12700080871582 C17.19099998474121,-31.12700080871582 31.12700080871582,-17.19099998474121 31.12700080871582,0z"></path></g><g opacity="1" transform="matrix(1,0,0,1,350.07000732421875,235.4149932861328)"><path fill="rgb(225,223,232)" fill-opacity="1" d=" M31.12700080871582,0 C31.12700080871582,17.19099998474121 17.19099998474121,31.12700080871582 0,31.12700080871582 C-17.19099998474121,31.12700080871582 -31.12700080871582,17.19099998474121 -31.12700080871582,0 C-31.12700080871582,0 -31.12700080871582,0 -31.12700080871582,0"></path></g><g opacity="1" transform="matrix(1,0,0,1,350.07000732421875,235.4149932861328)"><path stroke-linecap="round" stroke-linejoin="round" fill-opacity="0" stroke="rgb(0,69,104)" stroke-opacity="1" stroke-width="8" d=" M31.12700080871582,0 C31.12700080871582,17.19099998474121 17.19099998474121,31.12700080871582 0,31.12700080871582 C-17.19099998474121,31.12700080871582 -31.12700080871582,17.19099998474121 -31.12700080871582,0 C-31.12700080871582,-17.19099998474121 -17.19099998474121,-31.12700080871582 0,-31.12700080871582 C17.19099998474121,-31.12700080871582 31.12700080871582,-17.19099998474121 31.12700080871582,0z"></path></g><g opacity="1" transform="matrix(1,0,0,1,350.07000732421875,235.4149932861328)"><path stroke-linecap="round" stroke-linejoin="round" fill-opacity="0" stroke="rgb(0,89,124)" stroke-opacity="1" stroke-width="8" d=" M-31.12700080871582,0 C-31.12700080871582,0 -31.12700080871582,0 -31.12700080871582,0 C-31.12700080871582,-17.19099998474121 -17.19099998474121,-31.12700080871582 0,-31.12700080871582 C17.19099998474121,-31.12700080871582 31.12700080871582,-17.19099998474121 31.12700080871582,0"></path></g></g></g></g></g></svg>