<svg xmlns="http://www.w3.org/2000/svg" xmlns:xlink="http://www.w3.org/1999/xlink" viewBox="0 0 512 512" width="512" height="512" style="width: 100%; height: 100%; transform: translate3d(0,0,0); content-visibility: visible;" preserveAspectRatio="xMidYMid meet"><defs><clipPath id="__lottie_element_2"><rect width="512" height="512" x="0" y="0"></rect></clipPath></defs><g clip-path="url(#__lottie_element_2)"><g style="display: block;" transform="matrix(1,0,0,1,256,256)" opacity="1"><g opacity="1" transform="matrix(1,0,0,1,0,0)"></g></g><g style="display: block;" transform="matrix(1,0,0,1,256,256)" opacity="1"><g opacity="1" transform="matrix(1,0,0,1,0,0)"><path fill="rgb(38,161,123)" fill-opacity="1" d=" M226,-10 C226,-10 226,10 226,10 C226,129.2104034423828 129.2104034423828,226 10,226 C10,226 -10,226 -10,226 C-129.2104034423828,226 -226,129.2104034423828 -226,10 C-226,10 -226,-10 -226,-10 C-226,-129.2104034423828 -129.2104034423828,-226 -10,-226 C-10,-226 10,-226 10,-226 C129.2104034423828,-226 226,-129.2104034423828 226,-10z"></path></g></g><g style="display: block;" transform="matrix(1,0,0,1,256,268.375)" opacity="1"><g opacity="1" transform="matrix(1,0,0,1,0,0)"><path fill="rgb(255,255,255)" fill-opacity="1" d=" M26.079999923706055,-70.21499633789062 C26.079999923706055,-70.21499633789062 97.97000122070312,-70.21499633789062 97.97000122070312,-70.21499633789062 C97.97000122070312,-70.21499633789062 97.97000122070312,-118.125 97.97000122070312,-118.125 C97.97000122070312,-118.125 -97.7699966430664,-118.125 -97.7699966430664,-118.125 C-97.7699966430664,-118.125 -97.7699966430664,-70.21499633789062 -97.7699966430664,-70.21499633789062 C-97.7699966430664,-70.21499633789062 -25.8799991607666,-70.21499633789062 -25.8799991607666,-70.21499633789062 C-25.8799991607666,-70.21499633789062 -25.8799991607666,-38.80500030517578 -25.8799991607666,-38.80500030517578 C-84.30999755859375,-36.125 -128.25,-24.545000076293945 -128.25,-10.6850004196167 C-128.25,3.184999942779541 -84.30999755859375,14.744999885559082 -25.8799991607666,17.44499969482422 C-25.8799991607666,17.44499969482422 -25.8799991607666,118.125 -25.8799991607666,118.125 C-25.8799991607666,118.125 26.079999923706055,118.125 26.079999923706055,118.125 C26.079999923706055,118.125 26.079999923706055,17.415000915527344 26.079999923706055,17.415000915527344 C84.41999816894531,14.734999656677246 128.25,3.1649999618530273 128.25,-10.6850004196167 C128.25,-24.53499984741211 84.41999816894531,-36.095001220703125 26.079999923706055,-38.79499816894531 C26.079999923706055,-38.79499816894531 26.079999923706055,-70.21499633789062 26.079999923706055,-70.21499633789062z M26.083999633789062,8.850000381469727 C24.624000549316406,8.960000038146973 17.0939998626709,9.40999984741211 0.2939999997615814,9.40999984741211 C-13.116000175476074,9.40999984741211 -22.555999755859375,9.010000228881836 -25.875999450683594,8.850000381469727 C-25.875999450683594,8.850000381469727 -25.875999450683594,8.890000343322754 -25.875999450683594,8.890000343322754 C-77.50599670410156,6.619999885559082 -116.0459976196289,-2.369999885559082 -116.0459976196289,-13.130000114440918 C-116.0459976196289,-23.8700008392334 -77.50599670410156,-32.86000061035156 -25.875999450683594,-35.16999816894531 C-25.875999450683594,-35.16999816894531 -25.875999450683594,-0.05999999865889549 -25.875999450683594,-0.05999999865889549 C-22.506000518798828,0.18000000715255737 -12.836000442504883,0.75 0.5139999985694885,0.75 C16.54400062561035,0.75 24.583999633789062,0.09000000357627869 26.083999633789062,-0.05000000074505806 C26.083999633789062,-0.05000000074505806 26.083999633789062,-35.13999938964844 26.083999633789062,-35.13999938964844 C77.60399627685547,-32.849998474121094 116.04399871826172,-23.860000610351562 116.04399871826172,-13.130000114440918 C116.04399871826172,-2.369999885559082 77.60399627685547,6.590000152587891 26.083999633789062,8.880000114440918 C26.083999633789062,8.880000114440918 26.083999633789062,8.850000381469727 26.083999633789062,8.850000381469727z"></path></g></g></g></svg>